<svg xmlns="http://www.w3.org/2000/svg" shape-rendering="geometricPrecision" text-rendering="geometricPrecision" image-rendering="optimizeQuality" fill-rule="evenodd" clip-rule="evenodd" viewBox="0 0 512 512"><path fill="#fff" fill-rule="nonzero" d="M255.994 0c70.68 0 134.701 28.665 181.021 74.985C483.335 121.305 512 185.315 512 256.006c0 70.679-28.665 134.689-74.985 181.009C390.695 483.335 326.674 512 255.994 512c-70.679 0-134.689-28.665-181.009-74.985C28.665 390.695 0 326.685 0 256.006c0-70.68 28.665-134.701 74.985-181.021C121.305 28.665 185.315 0 255.994 0zm77.394 269.813c13.753-8.878 13.708-18.771 0-26.634L223.125 166.41c-11.198-7.038-22.898-2.9-22.586 11.722l.447 154.464c.958 15.861 10.015 20.21 23.366 12.871l109.036-75.654zm79.357-170.558c-40.108-40.108-95.541-64.924-156.751-64.924-61.21 0-116.631 24.816-156.739 64.924-40.108 40.108-64.924 95.54-64.924 156.751 0 61.21 24.816 116.631 64.924 156.739 40.108 40.108 95.529 64.924 156.739 64.924 61.21 0 116.643-24.816 156.751-64.924 40.108-40.108 64.924-95.529 64.924-156.739 0-61.222-24.816-116.643-64.924-156.751z"/></svg>
